<svg width="44" height="44" viewBox="0 0 44 44" fill="none" xmlns="http://www.w3.org/2000/svg">
<rect width="44" height="44" rx="22" fill="black"/>
<path d="M22.56 30.82C22.3968 30.9372 22.2009 31.0003 22 31.0003C21.7991 31.0003 21.6032 30.9372 21.44 30.82C16.611 27.378 11.486 20.298 16.667 15.182C18.0893 13.7828 20.0048 12.9991 22 13C24 13 25.919 13.785 27.333 15.181C32.514 20.297 27.389 27.376 22.56 30.82Z" stroke="#27DFB3" stroke-width="0.75" stroke-linecap="round" stroke-linejoin="round"/>
<path d="M22 22C22.5304 22 23.0391 21.7893 23.4142 21.4142C23.7893 21.0391 24 20.5304 24 20C24 19.4696 23.7893 18.9609 23.4142 18.5858C23.0391 18.2107 22.5304 18 22 18C21.4696 18 20.9609 18.2107 20.5858 18.5858C20.2107 18.9609 20 19.4696 20 20C20 20.5304 20.2107 21.0391 20.5858 21.4142C20.9609 21.7893 21.4696 22 22 22Z" stroke="#27DFB3" stroke-width="0.75" stroke-linecap="round" stroke-linejoin="round"/>
</svg>
