<svg width="44" height="44" viewBox="0 0 44 44" fill="none" xmlns="http://www.w3.org/2000/svg">
<rect width="44" height="44" rx="22" fill="black"/>
<path d="M17.829 26.171C15.6784 24.0163 14.0245 21.4177 12.983 18.557C12.41 16.993 12.935 15.275 14.113 14.097L14.842 13.369C15.038 13.1726 15.2708 13.0168 15.5271 12.9105C15.7833 12.8042 16.0581 12.7495 16.3355 12.7495C16.6129 12.7495 16.8877 12.8042 17.1439 12.9105C17.4002 13.0168 17.633 13.1726 17.829 13.369L19.536 15.076C19.7324 15.272 19.8882 15.5048 19.9945 15.7611C20.1008 16.0174 20.1555 16.2921 20.1555 16.5695C20.1555 16.847 20.1008 17.1217 19.9945 17.378C19.8882 17.6342 19.7324 17.867 19.536 18.063L19.116 18.483C18.9479 18.6511 18.8145 18.8507 18.7235 19.0703C18.6326 19.2899 18.5857 19.5253 18.5857 19.763C18.5857 20.0007 18.6326 20.2361 18.7235 20.4558C18.8145 20.6754 18.9479 20.8749 19.116 21.043L22.956 24.884C23.1241 25.0521 23.3236 25.1855 23.5433 25.2765C23.7629 25.3675 23.9983 25.4143 24.236 25.4143C24.4737 25.4143 24.7091 25.3675 24.9287 25.2765C25.1484 25.1855 25.3479 25.0521 25.516 24.884L25.937 24.464C26.133 24.2676 26.3658 24.1118 26.6221 24.0055C26.8783 23.8992 27.1531 23.8445 27.4305 23.8445C27.708 23.8445 27.9827 23.8992 28.2389 24.0055C28.4952 24.1118 28.728 24.2676 28.924 24.464L30.631 26.171C30.8274 26.367 30.9832 26.5998 31.0895 26.8561C31.1958 27.1123 31.2505 27.3871 31.2505 27.6645C31.2505 27.942 31.1958 28.2167 31.0895 28.473C30.9832 28.7292 30.8274 28.962 30.631 29.158L29.903 29.886C28.725 31.065 27.007 31.59 25.443 31.017C22.5824 29.9755 19.9838 28.3216 17.829 26.171Z" stroke="#27DFB3" stroke-width="0.75" stroke-linejoin="round"/>
</svg>
