<svg width="1268" height="453" viewBox="0 0 1268 453" fill="none" xmlns="http://www.w3.org/2000/svg">
<g filter="url(#filter0_f_2_56)">
<path d="M328 64.5601C394.5 -10.3737 534.908 -34.7839 554.502 -48.9759C591.193 -63.5463 676.332 -93.1413 723.358 -94.9579C770.384 -96.7745 842 -41.5 904.5 -6C967 29.5 1052.06 35.3978 1042.56 71.8978C1020.77 155.601 948.923 121.707 913 99C856.5 63.2857 846.184 57.7383 842 50.5C784.5 -48.9759 743 -85.8736 658 1.12635L532.219 92.5601C154.191 310.934 174.815 237.173 328 64.5601Z" fill="#27DFB3"/>
<path d="M328 64.5601C394.5 -10.3737 534.908 -34.7839 554.502 -48.9759C591.193 -63.5463 676.332 -93.1413 723.358 -94.9579C770.384 -96.7745 842 -41.5 904.5 -6C967 29.5 1052.06 35.3978 1042.56 71.8978C1020.77 155.601 948.923 121.707 913 99C856.5 63.2857 846.184 57.7383 842 50.5C784.5 -48.9759 743 -85.8736 658 1.12635L532.219 92.5601C154.191 310.934 174.815 237.173 328 64.5601Z" stroke="#13483B"/>
</g>
<defs>
<filter id="filter0_f_2_56" x="0.171967" y="-319.602" width="1267.72" height="771.814" filterUnits="userSpaceOnUse" color-interpolation-filters="sRGB">
<feFlood flood-opacity="0" result="BackgroundImageFix"/>
<feBlend mode="normal" in="SourceGraphic" in2="BackgroundImageFix" result="shape"/>
<feGaussianBlur stdDeviation="112.05" result="effect1_foregroundBlur_2_56"/>
</filter>
</defs>
</svg>
